<?xml version="1.0" encoding="UTF-8"?>
<svg id="Layer_2" data-name="Layer 2" xmlns="http://www.w3.org/2000/svg" viewBox="0 0 115.09 226.44">
  <defs>
    <style>
      .cls-1 {
        fill: #134d71;
        stroke-width: 0px;
      }
    </style>
  </defs>
  <g id="final">
    <g>
      <path class="cls-1" d="M57.55,226.44c-.39,0-9.52-.2-12.72-17.17l-.02-.13c-2.19-17.77,6.06-28.72,9.63-32.54l-.76-.76c-3.24-3.24-6.12-6.57-8.56-9.91C23.25,136.05,0,87.9,0,57.55S25.81,0,57.54,0s57.55,25.81,57.55,57.55c0,29.63-22.83,77.39-44.31,107.28-2.81,3.91-5.98,7.63-9.42,11.08l-.71.71c3.57,3.82,11.82,14.75,9.63,32.54l-.02.13c-3.2,16.97-12.33,17.17-12.72,17.17ZM48.77,208.6c2.54,13.38,8.76,13.84,8.82,13.84-.03,0,6.18-.46,8.73-13.85,2.03-16.65-5.86-26.46-8.77-29.46-2.91,3-10.8,12.82-8.78,29.46ZM57.54,4C28.02,4,4,28.02,4,57.55c0,22.02,15.54,66.67,44.35,106.04,2.32,3.17,5.07,6.35,8.16,9.44l1.04,1.04.99-.99c3.29-3.29,6.32-6.85,9-10.58,21.11-29.39,43.55-76.15,43.55-104.94S87.07,4,57.54,4Z"/>
      <path class="cls-1" d="M93.12,70.33c-.17-.42-.42-.58-.61-.65-1.38-.51-2.48,1.51-2.87,2.22-5.37,13.09-17.97,21.55-32.09,21.55-19.11,0-34.66-15.55-34.66-34.66s15.55-34.66,34.66-34.66c11,0,21.11,5.06,27.74,13.9l.24.32,3.44-1.49-.37-.5c-7.21-9.94-18.82-15.88-31.05-15.88-21.13,0-38.33,17.19-38.33,38.33s17.19,38.33,38.33,38.33c15.53,0,29.42-9.28,35.4-23.64.37-.79.52-2.29.17-3.14Z"/>
      <path class="cls-1" d="M103.9,34.27c-.19-.16-.42-.22-.61-.16-.23.05-5.91,3.25-9.26,5.14-1.05.56-2.81,1.41-3.47,1.56-.36-.68-1.49-2.81-1.87-3.19-.03-.13.33-.61.85-1.03l1.6-1.76c.16.2.31.29.5.22l.16-.08.05-.13c.06-.17.06-.35-.55-1.47-.67-1.23-1.22-2.68-1.48-2.58s.48,2.55.48,2.55l-3.68,2.56-4.43.73s-1.2-2.26-1.43-2.16.36,1.53.74,2.88c.36,1.25.47,1.36.63,1.44l.18.05.12-.05c.19-.08.22-.25.2-.5l2.42.14c.57-.05,1.2.02,1.28.14,0,.54.67,2.86.89,3.6-.58.35-2.43.97-3.57,1.3-3.67.97-9.83,2.61-10.21,2.76h-.01c-.18.1-.3.3-.33.55-.02.21.02.48.2.64.39.33,8.36-.37,9.72-.64,1.87-.38,4.96-.19,5.73-.13l1.61,3.95c2.23,5.87,4.08,5.62,4.48,5.49.33-.16,1.84-1.28-.65-7.03l-1.6-3.97c.52-.58,2.6-2.87,4.2-3.9,1.17-.75,7.37-5.8,7.42-6.31.02-.24-.15-.46-.31-.6Z"/>
    </g>
  </g>
</svg>