<?xml version="1.0" encoding="UTF-8"?>
<svg id="Layer_2" data-name="Layer 2" xmlns="http://www.w3.org/2000/svg" viewBox="0 0 576.52 383.88">
  <defs>
    <style>
      .cls-1 {
        fill: #124d71;
        stroke-width: 0px;
      }
    </style>
  </defs>
  <g id="Layer_2-2" data-name="Layer 2">
    <path class="cls-1" d="M6,204.91c-.89-3.66-2.4-6.55-6-7.89.07-.75.19-1.36.18-1.97-.08-3.65.44-7,3.94-9.11.49-.3.85-.98,1.05-1.56.8-2.25,1.82-4.48,2.2-6.81.68-4.16,3.33-7.15,5.54-10.43.16-.24.53-.33.95-.57,2.3.75,4.7,1.54,7.03,2.3,2.16-2.56,2.24-3.74.41-5.3-.73-.62-1.54-1.14-2.26-1.77-1.05-.92-1.65-2.22-1-3.44,2.11-3.95.26-7.59-1.09-11.02-.94-2.39-1.02-4.21.3-6.24,1.13-1.74,2.2-3.52,3.43-5.18,3.9-5.24,7.67-10.59,11.87-15.58,4.08-4.85,8.13-9.79,13.42-13.47.72-.5,1.34-1.41,1.59-2.26.4-1.35,1.42-2.07,2.32-2.96.87-.85,1.77-1.1,3.01-1.03,1.39.08,2.84-.2,4.22-.51,1.51-.34,2.52-1.25,2.75-2.93.1-.75.32-1.75.84-2.12,1.72-1.22,1.81-2.88,1.76-4.69-.03-1.12-.05-2.24.02-3.36.07-1.2-.26-2.2-1.15-3.01-1.31-1.2-2.17-2.69-3.11-4.45,1.53-.67,2.8-1.23,3.98-1.75.45-1.73.22-2.98-1.28-3.86-2.02-1.19-2.98-3-3.7-5.29-1.19-3.75-2.61-7.49-5.58-10.41-1.46-1.43-2.54-3.26-3.99-5.16.65-1.43,1.36-2.97,1.98-4.32-.73-1.77-1.59-3.31-1.98-4.96-.39-1.65-.32-3.42-.47-5.34,3.86-1.69,7.35-.72,10.68,1.64,3.45-2.06,6.4-4.52,8.89-7.33,1.63-1.84,2.4-4.44,3.73-7.03.78-.16,1.84-.59,2.9-.58,3.17.02,6.29-1.21,9.5-.22.67.21,1.62-.07,2.31-.41,2.06-1.01,4.19-1.49,6.48-1.52.59,0,1.34-.26,1.72-.67,1.44-1.54,3.08-1.5,4.84-.85,4.61,1.7,9.44,1.78,14.21,1.43,3.54-.26,7,.43,10.51.3.87-.03,1.91.41,2.61.97,1.74,1.4,3.71,1.8,5.83,1.8,1.93,0,3.78.01,5.33,1.55.61.6,1.75.91,2.66.92,4.57.08,8.64,2.05,12.88,3.38,2.28-.63,4.44-2.13,6.92-.84,1.34,2.13,2.64,4.29,4.02,6.39,1.84,2.78,2.78,3.07,5.86,1.45,1.74-.92,3.36-.99,5.01-.1,1.47.8,2.44,1.81,2.11,3.83-.3,1.87.44,2.63,1.77,2.71,1.98.12,3.21-.74,3.44-2.49.08-.63-.05-1.29.03-1.91.08-.61.32-1.21.46-1.7,1.09-.54,1.59.19,2.21.65,3.39,2.52,4.66,2.38,7.71-.72.54-.55,1.2-.97,1.82-1.43.1-.07.3-.01.55-.01,1.47,1.53,3,3.11,4.67,4.85.82-.42,1.49-.74,2.15-1.09,2.76-1.45,4.98-.51,5.81,2.51.21.76.13,1.6.36,2.35.38,1.23,2.24,1.7,3.19.8.57-.54,1.06-1.19,1.42-1.88,1.1-2.09,2.65-3.53,5.02-4.09,1.42-.33,2.59-1.1,3.58-2.25,1.59-1.84,3.29-.88,4.11.9.26.57.42,1.2.61,1.81.38,1.21.68,2.46,1.14,3.64.63,1.62,1.38,3.2,2.11,4.87,2.58.61,4.78.34,6.71-1.54.91-.88,2-1.57,3.01-2.33,1.63-1.23,2.62-1.39,4.17.14,1.9,1.87,3.84,1.56,5.61.36,1.44-.98,2.89-1.2,4.49-1.3,4.76-.28,7.92,1.6,9.4,6.23.91,2.84,2.71,4.19,5.36,4.83,1.38.33,2.5-.14,3.22-1.43.7-1.25,1.27-2.57,1.9-3.85-.53-1.83-1.19-3.62-1.53-5.47-.29-1.58-.39-3.1-1.56-4.41-1.07-1.2-.84-2.62-.09-4.02,1.72-3.23,3.42-6.47,4.3-10.07.14-.59.56-1.14.96-1.63,1.11-1.36,2.15-2.82,3.45-3.98,1.85-1.64,3.06-3.59,3.48-5.94,2.38-.76,4.4-1.27,6.72-.31,1.81.75,3.78.6,5.07-1.4.7-1.08,1.88-1.15,3.01-1.12,4.47.11,8.95.24,13.42.43.59.02,1.48.27,1.68.69,1.11,2.25,3.03,1.94,4.95,1.79.8-.06,1.6-.1,2.4-.05,3.65.23,5.57-2.02,6.8-4.95.92-2.19,1.44-4.55,2.18-6.81.24-.72.61-1.4,1.05-2.38,3.13,1.63,6.79.96,9.42,3.45,3.31.57,6.81,1.41,9.56-1.19,5.66-5.34,10.63-4.43,17.86-1.51,1.08-.56,2.28-1.37,3.6-1.82,1.9-.64,3.76-.65,5.22,1.16,1.1,1.36,2.27,2.69,3.52,3.91,2.52,2.46,4.07,5.18,3.56,8.92-.52,3.8,2.11,6.17,4.52,8.52.79.77,1.72,1.42,2.65,2.04,1.95,1.31,3.2,3.06,3.62,5.4-.63,1.37-1.54,2.22-3.14,2.6-2.12.51-4.44.64-6.29,2.2-.11,2.12.96,3.73,2.05,5.26,1.17,1.65,1.83,3.38,1.54,5.38-.31,2.19-.03,4.08,1.76,5.66.76.67.65,1.76-.05,2.6-.3.36-.91.58-1.02.97-.19.69-.3,1.53-.09,2.18.27.81,1.05,1.12,1.95.83,3.16-1,6.33-.14,9.22-.31,1.81,1.34,2.3,3.62,3.83,3.8,3.42-.71,6.18-1.44,8.99-1.82,2.13-.29,2.72.28,3.62,2.33.13.29.32.58.36.89.4,3.5,2.59,4.86,5.87,4.91.12,0,.24.19.65.54-.23,2.08-.73,4.41.54,6.64,1.1,1.92,1.72,4.12,2.85,6.02,1.21,2.01,1.44,3.79.03,5.76-1.69,2.36-1.57,4.79.08,7.11,1.84,2.58,3.71,5.15,5.67,7.64.73.93,1.88,1.18,3.06.82.46-.14,1.03-.22,1.32-.54,2.73-3.01,6.28-2.7,9.82-2.52,2.25.12,3.99,1.03,5.1,3.03.39.7.73,1.43,1.16,2.09.97,1.52,2.48,2.33,4.09,1.56,2.42-1.16,3.95-.21,5.36,1.57.49.62.94,1.26,1.36,1.82,2.47.33,3.62-1.56,5.03-2.64,3-2.28,6.03-3.95,9.97-3.58,2.28.21,4.4-.48,6.21-2.04.71-.61,1.57-1.11,2.44-1.44,2.54-.96,3.5-.53,5.21,1.71,1.15,1.5,2.49,2.86,4.06,4.63-.06-.18.17.14.12.41-.72,4.18,2.11,6.8,4.25,9.71.27.37.7.75,1.12.85,3.07.75,4.67,3.18,6.37,5.48.88,1.19,1.71,2.33,3.47,1.95,2.02-.44,3.5-1.81,3.82-3.81.14-.9.02-1.85.02-2.76,1.43-.85,2.57-.85,3.61.26.22.23.38.51.56.78,1.73,2.71,4.18,3.76,7.35,3.31.93-.13,1.9-.02,2.94-.02.77.85,1.52,1.66,2.25,2.49,2.05,2.35,5.18,3,7.63,4.74,1.06.75,2.78.53,3.97-.68.64-.65,1.4-1.19,2.01-1.69,1.88.72,1.87,2.36,2.39,3.64,1.02,2.49,2.61,3.75,5.12,3.01,3.29-.97,5.06.16,6.52,3.02,1.68,3.29,4.63,5.16,8.5,6.35,1.27-.8,2.71-1.75,4.2-2.62.66-.38,1.39-.74,2.13-.86,1.13-.18,2.16,1.24,1.68,2.25-.27.56-.69,1.05-1.05,1.57-1.6,2.31-1.58,3.23.09,5.51.94,1.28,1.86,2.57,2.84,3.91-.76,3.26-1.79,6.17-4.61,8.17-.76.54-1.5,1.35-1.82,2.2-.98,2.61-2.97,3.56-5.51,3.92-1.5.21-2.69.98-3.41,2.78,1.4,5.49,6.08,5.83,10.66,6.21.38,1.46-.15,2.31-1.52,2.46-.77.08-1.63.04-2.36-.2-1.36-.46-2.51-.22-3.61.58-.63.46-1.77.94-1.78,1.42-.05,2.54-2.8,4.01-2.46,6.59.07.56.47,1.2.92,1.56.46.38,1.15.5,1.75.69,3.69,1.18,4.01,1.62,4.43,5.23.18,1.55.6,3.07,1.01,5.06.03-.07-.16.35-.39.75-1.28,2.22-1.2,2.56.9,3.6.68.34,1.37.67,2.09,1.02-.24.67-.27,1.25-.58,1.54-4.15,3.85-5.17,8.92-5.62,14.22-.11,1.25-.32,2.48-.51,3.95-1.24.23-2.3.6-3.36.59-5.6-.05-11.19-.16-16.78-.35-1.25-.04-2.48-.55-3.74-.69-1.4-.16-2.84-.3-4.24-.19-1.97.15-3.17,1.33-3.58,3.3-.19.93-.4,1.87-.73,2.77-.21.58-.52,1.35-1,1.57-2.53,1.2-4.46,3.42-7.68,3.52-4.86.16-7.53,3.18-7.87,7.92-.16,2.2-.41,4.39-.65,6.88.5.6,1.2,1.45,2.02,2.45-1,1.47-2.11,2.82-2.91,4.35-.77,1.49.31,3.52-1.28,5.15-.57-.28-1.16-.47-1.62-.83-1.61-1.26-3.4-1.68-5.4-1.38-1.58.24-3.19.34-4.74.69-.96.21-1.81.35-2.79.05-3.11-.96-5.21.64-6.94,2.96-1.41,1.89-2.76,3.84-4.22,5.89-1.42-.65-2.7-1.23-4.11-1.87-2.84,1.56-5.73,3.2-8.66,4.76-2.1,1.12-2.97,3.22-4.03,5.08-.49-.14-.87-.13-1.03-.31-2.29-2.61-4.85-2.82-7.68-.92-.26.18-.56.38-.86.41-3.64.37-6.12,2.4-7.8,5.88-.89-.46-1.63-.7-2.19-1.16-2.17-1.82-4.88-2.1-7.26-1.48-2.36.62-4.48,2.28-6.59,3.67-1.18.78-2.09,1.96-3.13,2.94-.93.87-1.75,2.17-2.85,2.5-3.65,1.11-5.53,4.15-8.06,6.69-1.01-.65-2-1.4-3.09-1.98-1.38-.75-2.49-.41-3.01,1.18-.93,2.86-2.58,4.63-5.67,5.07-1.05.15-2.05.85-3.03,1.37-1.57.84-2.17,2.17-2.11,3.96.19,5.35,1.64,10.36,3.8,15.2,2.86,6.44,6.83,12.21,10.97,17.86.56.77,1.14,1.54,1.78,2.24,3.59,3.87,6.29,4.45,11.11,2.32.69-.31,1.33-.87,1.83-1.46.91-1.08,1.7-2.27,2.46-3.3,1.65-.33,1.98,1,2.77,1.69,1.49,1.32,2.76,1.49,4.33.36,1.82-1.31,3.5-2.78,5.68-3.5,1.1-.36,2.22-.65,3.23.05,1.83,1.25,3.87,1.34,5.97,1.4.93.03,1.92.2,2.76.58.46.21.9,1,.89,1.52,0,.48-.57,1.31-.98,1.37-4.38.67-4.81,4.59-6.28,7.6-.24.5.34,1.45.64,2.15.28.67.69,1.28,1.19,2.17-2.42,1.15-4.96,1.11-6.83,2.7-.35.29-1.33.19-1.82-.09-1.74-1-3.34-.69-5.02.1-.71.33-1.53.57-2.31.61-1.61.09-3.18-.08-4.38-1.43-.63-.71-1.45-1.25-2.1-1.95-2.17-2.34-4.91-1.99-7.61-1.56-.66.11-1.42.79-1.79,1.41-1.05,1.76-1.93,3.62-2.97,5.63-4.64.07-6.79,3.77-9.29,7.17-.73-.38-1.35-.57-1.79-.96-1.09-.95-2.25-1.01-3.58-.66-2.31.61-4.8.79-6.95,1.75-3.41,1.54-7.07,2.91-9.2,6.36-.33.52-.73,1.11-.76,1.69-.14,2.25-1.85,3.23-3.36,4.38-1.51,1.16-3.03,2.32-4.6,3.39-1.03.71-2.15,1.74-3.27,1.8-3.32.17-6.67-.04-10-.2-.57-.03-1.36-.42-1.63-.88-1.48-2.59-4.08-3.42-6.56-4.53-.69-.31-1.07-1.31-1.82-2.3,1.58-.58,2.74-1.01,3.99-1.47.21-.35.55-.72.68-1.16.23-.76.49-1.56.47-2.33-.09-2.71-.54-5.46,1.89-7.56.3-.26.29-.89.39-1.35.77-3.82-.95-9.68-5.31-12.46-.74-.47-1.87-.74-2.71-.57-4.14.86-6.92-1.29-9.6-3.93-1.58-1.55-3.1-3.13-5.34-3.91-2.22-.77-4.23-1.22-6.39.04-1.43.83-3.03.96-4.64.44-1.33-.43-2.03-1.73-1.56-3.04.48-1.36,1.08-2.58,2.61-3.22,1.73-.72,3.37-1.7,5-2.65.82-.48,1.64-1.05,2.25-1.75,2.25-2.6,5.09-4.21,8.29-5.31.44-.15,1-.31,1.24-.65,1.26-1.78,3-2.14,5.03-2.11.71.01,1.5-.48,2.12-.93,2.88-2.1,5.92-3.71,9.57-4.07,1.73-.17,2.88-2.39,1.72-3.57-1.9-1.94-1.49-4.05-1.48-6.26,0-.62-.09-1.32-.39-1.84-.52-.9-1.48-1.3-2.47-1.02-.51.15-1.06.69-1.28,1.19-.37.82-.48,1.76-.75,2.85-2.64-.5-4.48-2.13-6.41-3.34-1.61-1.01-3.09-1.55-4.88-1.41-1.9.15-3.8.37-5.7.56-.95.09-1.99.47-2.83.21-2.99-.93-5.54.06-8.3,1.13-3.97,1.54-7.85.98-11.11-2.1-2.69-2.55-5.96-4.21-9.33-5.59-1.41-.58-3.08-.51-4.61-.85-.33-.07-.79-.64-.76-.94.03-.33.53-.82.88-.87,1.26-.19,2.55-.16,3.81-.35,1.66-.25,2.9-2.62,2.1-4.09-.27-.5-.9-1.02-1.44-1.12-3.11-.55-6.07-2.03-9.39-1.4-1.54.29-1.79-.11-2.05-2.36,1.69-.62,3.58-.86,5.08-.03,2.53,1.4,5.2,1.49,7.9,1.58,2.74.09,5.33.34,7.74,1.97,1.82,1.22,3.25.58,4.27-1.42.41-.81.6-1.75.87-2.6-1.55-1.83-3.56-2.3-5.36-1.99-2.49.43-4.33-.23-6.07-1.81-.22-.2-.59-.24-.87-.4-.28-.15-.53-.36-.99-.68-.7-2.21-1.8-4.48-1.35-7.17.17-.99-1.22-1.58-2.6-1.28-1.05.23-1.79,1.23-1.38,2.09.46.98,1.16,1.84,1.83,2.88-.2.7-.35,1.49-.63,2.22-.68,1.72-1.53,2.17-3.33,1.83-.47-.09-.95-.21-1.38-.41-1.43-.7-2.8-.39-4.16.18-.44.19-.89.54-1.32.52-1.72-.05-3.45-.46-5.13-.28-1.55.17-2.96.94-4.67.57-1.54-.33-3.19-.29-4.77-.2-1.08.06-2.28.27-3.17.83-1.4.88-2.89,1.26-4.45,1.64-4.07,1-4.7,2.34-3.16,6.91-1.07,1.67-2.47,3.43-3.41,5.42-.89,1.89-1.97,3.6-3.11,5.33-2.18,3.33-4.19,6.76-6.88,9.72-1.81,2-3.57,4.05-5.33,6.09-.81.93-1.89,1.18-3.03,1.15-1.1-.02-2.19-.18-3.41-.28-.73,1.17-1.4,2.22-2.13,3.38-1.15.1-2.39.2-3.51.3-.22.49-.47.77-.45,1.03.08,1.32,1.16,2.78-.86,3.96-.69-.97-1.38-1.95-2.22-3.14-.64,0-1.43-.06-2.21.01-1.08.1-1.8.8-1.95,1.82-.27,1.9-.45,3.81.99,5.46.62.71.98,1.65,1.57,2.39,2.49,3.12,2.47,6.79,2.29,10.47-.02.43-.6.83-1.32,1.75-.28-1.24-.41-1.82-.53-2.39-.13-.62-.13-1.3-.4-1.85-2.15-4.39-9.18-6.77-13.6-4.45-3.36,1.77-6.55,3.86-9.9,5.85-.94-.29-1.97-.62-3.01-.92-.13-.04-.3.09-.64.21-.43,1.02-.9,2.15-1.32,3.15-2.17.92-3.97.26-5.76-.5-1.17-.49-2.31-1.33-3.51-1.4-2.61-.16-3.99-1.95-5.34-3.65-1.15-1.44-1.86-3.23-2.74-4.83,1.31-1.72,2.65-1.3,4.33-.75,2.56.85,4.79-.82,5.16-3.45.04-.32.12-.66.03-.95-1.17-3.9.83-6.33,3.78-8.4,1.03-.73,1.88-1.71,3-2.76.29-1.78.62-3.78.95-5.83,1.54-.26,2.81-.38,4.02-.72,1.5-.42,2.51-1.42,2.58-3.08.08-1.76.18-3.47,1.06-5.1.33-.62.25-1.57.09-2.32-.56-2.64-1.21-5.26-1.89-7.87-.46-1.76.02-3.01,1.46-4.18,1.65-1.34,3.19-2.63,5.75-1.89.11.93.15,1.86.34,2.77.33,1.6,1.46,2.26,2.79,1.39,1.82-1.19,3.77-1.64,6.07-1.87.45.51,1.03,1.05,1.46,1.69.82,1.2,1.97,1.47,3.32,1.53,1.48.06,1.73-1.09,2.34-2,.78-1.17,1.87-1.09,2.63.14.74,1.2,1.42,2.44,1.95,3.37,2.49,0,4.54.04,6.58-.02,1.03-.03,1.74-.87,1.76-1.91.02-1.47-.09-2.89-1.55-3.77-.54-.33-1.05-.73-1.54-1.14-1.75-1.51-2.41-3.32-1.49-5.55.3-.74.69-1.46.87-2.22.87-3.61-.99-6.83-4.29-8.75-1.91-1.11-3.94-2.03-5.79-3.23-.74-.47-1.68-1.51-1.61-2.2.28-2.83-1.25-4.82-2.84-6.87.79-2.19,1.59-4.27,2.3-6.38.91-2.71-.13-3.97-3.01-3.61-.92.11-1.82.48-3.04.82-.46-.72-.87-1.56-1.47-2.23-1.38-1.52-2.59-3.16-4.55-4.15-2.26-1.14-2.74-2.78-2.13-5.2.08-.31.09-.68.27-.91,2.57-3.33,2.15-7.17,1.96-10.98-.02-.32-.06-.65,0-.96.54-3.28-1.21-5.4-3.6-7.32-1.67.47-3.3.92-5.06,1.41-1.56-2.07-3.26-3.74-3.68-6.22-.21-1.22-1.08-1.91-2.03-2.54-1.53-1.01-3.24-1.21-5.04-1.29-1.92-.08-3.39.57-4.26,2.72-1.34-1.19-2.32-1.95-3.13-2.85-.36-.41-.49-1.12-.53-1.7-.19-3-.56-3.24-3.2-2.01-.28.13-.58.23-.88.34-.31-.07-.69-.05-.91-.23-1.99-1.55-3.81-3.37-5.96-4.64-2.23-1.31-4.29-2.75-6.01-4.64-1.16-1.27-2.47-1.93-4.19-1.96-1.6-.03-3.19-.3-4.78-.27-.92.02-2.01.21-2.7.74-1.46,1.14-2.97,1.77-4.83,1.76-.57,0-1.37.29-1.68.73-1.66,2.38-3.49,1.65-5.42.49-.13-.08-.31-.08-.46-.12-1.3.48-2.59,1.31-3.89,1.33-1.35.03-2.71-.72-4.34-1.22-.74,1.24-1.43,2.4-2.23,3.74-1.68.34-3.71.18-4.86,2.22-.28.5-1.43.72-2.17.72-2.52-.02-4.66.97-6.79,2.3-.81,1.81-1.69,3.68-2.5,5.58-1.23,2.88-3.16,4.74-6.49,4.76-.79,0-1.64.02-2.36.31-4.54,1.79-9.36,1.83-14.1,2.42-2.68.34-5.33.96-7.97,1.58-.73.17-1.43.71-1.99,1.24-.69.65-1.31,1.4-1.81,2.21-2.8,4.55-3.43,4.49-7.92,4.41-2.52-1.9-4.96-3.68-7.31-5.57-.57-.46-.76-1.37-1.26-1.95-.7-.83-1.44-2.04-2.33-2.22-2.93-.57-6.03-1.36-8.76.63-1.83,1.33-3.55,1.39-5.23-.02-1.89-1.59-3.93-1.94-6.26-1.26-1.45.42-2.77.19-3.99-.93-.64-.59-1.68-1-2.56-1.05-3-.16-5.97-1.17-9.03-.11-1.63.57-3.14-.14-4.35-1.37-.78-.8-1.51-1.65-2.32-2.41-2.11-1.98-4.36-1.49-5.7,1.24-.28.56-.42,1.19-.66,1.92-.92.27-1.83.51-2.71.81-.87.3-1.73.66-2.84,1.1-.19-1.11-.33-2.02-.51-2.92-.58-2.94-1.24-3.54-4.06-3.68-.48-.02-.96.02-1.44.06-1.63.13-3-.53-3.47-2.01-1.15-3.53-3.94-4.78-7.58-5.59Z"/>
  </g>
</svg>